<?xml version="1.0" encoding="UTF-8"?>
<svg xmlns="http://www.w3.org/2000/svg" xmlns:xlink="http://www.w3.org/1999/xlink" width="100px" height="86px" viewBox="0 0 99 86" version="1.1">
<g id="surface1">
<path style=" stroke:none;fill-rule:nonzero;fill:rgb(5.098039%,33.333333%,100%);fill-opacity:1;" d="M 60.746094 41.890625 C 60.378906 38.929688 58.914062 35.972656 56.710938 34.121094 L 18.914062 3.789062 C 14.144531 0.0898438 7.539062 0.828125 3.867188 5.636719 C 0.199219 10.445312 0.929688 17.105469 5.703125 20.804688 L 33.226562 43 L 5.703125 65.195312 C 0.929688 68.894531 0.199219 75.554688 3.867188 80.363281 C 7.539062 85.171875 14.144531 85.910156 18.914062 82.210938 L 56.710938 51.140625 C 59.28125 48.917969 60.746094 45.960938 60.746094 42.628906 Z M 60.746094 41.890625 "/>
<path style=" stroke:none;fill-rule:nonzero;fill:rgb(0%,78.823529%,85.882353%);fill-opacity:1;" d="M 87.425781 62.496094 L 54.765625 62.496094 C 54.398438 62.496094 53.664062 62.496094 53.296875 62.867188 L 28.710938 82.472656 C 28.34375 82.839844 28.34375 83.210938 28.710938 83.582031 C 28.710938 83.949219 29.078125 83.949219 29.445312 83.949219 L 87.792969 83.949219 C 93.664062 83.949219 98.800781 78.769531 98.433594 72.484375 C 98.070312 66.5625 92.929688 62.496094 87.425781 62.496094 "/>
<path style=" stroke:none;fill-rule:nonzero;fill:rgb(43.921569%,0%,94.901961%);fill-opacity:1;" d="M 98.433594 73.222656 C 98.433594 79.140625 93.664062 83.949219 87.792969 83.949219 C 81.921875 83.949219 77.152344 79.140625 77.152344 73.222656 C 77.152344 67.304688 81.921875 62.496094 87.792969 62.496094 C 93.664062 62.496094 98.433594 67.304688 98.433594 73.222656 "/>
</g>
</svg>
